# xmcd
#
# Track frame offsets:
#	150
#	17928
#	39327
#	58277
#	74349
#	88700
#	104204
#	121022
#	140514
#	156815
#	169915
#	184257
#
# Disc length: 2618 seconds
#
# Revision: 2
# Processed by: cddbd v1.5.1PL0 Copyright (c) Steve Scherf et al.
# Submitted via: EasyCDDAExtractor 7.5.0.1
#
DISCID=ad0a380c
DTITLE=Countdown Swingers - Today's Country
DYEAR=2001
DGENRE=Country
TTITLE0=I Hope You Dance
TTITLE1=My Best Friend
TTITLE2=Breathe
TTITLE3=My Next Thirty Years
TTITLE4=The Way You Love Me
TTITLE5=Thats the Way It Is
TTITLE6=We Danced
TTITLE7=I'll Still Love You More
TTITLE8=The Little Girl
TTITLE9=Kiss This
TTITLE10=Big Deal
TTITLE11=Katie Wants a Fast One
EXTD=
EXTT0=
EXTT1=
EXTT2=
EXTT3=
EXTT4=
EXTT5=
EXTT6=
EXTT7=
EXTT8=
EXTT9=
EXTT10=
EXTT11=
PLAYORDER=
